<?xml version="1.0" encoding="utf-8"?><!-- Uploaded to: SVG Repo, www.svgrepo.com, Generator: SVG Repo Mixer Tools -->
<svg width="32" height="32" viewBox="0 0 16 16" fill="none" xmlns="http://www.w3.org/2000/svg">
  <g>
    <circle id="pulse" cx="8" cy="5" r="6" fill="#007bff" fill-opacity="0.45">
      <animate attributeName="r" values="6;11;6" dur="0.8s" repeatCount="indefinite"/>
      <animate attributeName="opacity" values="0.45;0.10;0.45" dur="0.8s" repeatCount="indefinite"/>
    </circle>
    <path d="M5 3C5 1.34315 6.34315 0 8 0C9.65685 0 11 1.34315 11 3V7C11 8.65685 9.65685 10 8 10C6.34315 10 5 8.65685 5 7V3Z" fill="#007bff"/>
    <path d="M9 13.9291V16H7V13.9291C3.60771 13.4439 1 10.5265 1 7V6H3V7C3 9.76142 5.23858 12 8 12C10.7614 12 13 9.76142 13 7V6H15V7C15 10.5265 12.3923 13.4439 9 13.9291Z" fill="#0056b3"/>
  </g>
</svg>